# xmcd
#
# Track frame offsets:
#	150
#	17105
#	38502
#	49170
#	64601
#	84011
#	95809
#	111819
#	129325
#	153728
#	167519
#	189135
#	200517
#	217858
#	238663
#
# Disc length: 3434 seconds
#
# Revision: 0
# Processed by: cddbd v1.5.2PL0 Copyright (c) Steve Scherf et al.
# Submitted via: dBpowerAMP V4.0
#
DISCID=b90d680f
DTITLE=Holy Water and Whiskey - Miners, Outlaws, and Other Relatives
DYEAR=2011
DGENRE=Country
TTITLE0=San Parras
TTITLE1=I Am A Miner
TTITLE2=Feed My Sheep
TTITLE3=Sixteen Tons
TTITLE4=Upper Big Branch
TTITLE5=Mary Had a Baby
TTITLE6=Ghostriders In The Sky
TTITLE7=Fishin' Blues
TTITLE8=Blue Wind
TTITLE9=Catfish John
TTITLE10=Night Rider's Lament
TTITLE11=Ramblin' Rover
TTITLE12=Fancy Red Boots
TTITLE13=Last Trip Home
TTITLE14=Step By Step
EXTD=
EXTT0=
EXTT1=
EXTT2=
EXTT3=
EXTT4=
EXTT5=
EXTT6=
EXTT7=
EXTT8=
EXTT9=
EXTT10=
EXTT11=
EXTT12=
EXTT13=
EXTT14=
PLAYORDER=
